<svg id="Warstwa_2" data-name="Warstwa 2" xmlns="http://www.w3.org/2000/svg" viewBox="0 0 1080 50"><defs><style>.cls-1,.cls-2{fill:#f2f2f2;}.cls-1{opacity:0.5;}.cls-2{opacity:0.75;}.cls-3{fill:none;}</style></defs><rect class="cls-1" y="15.07" width="1.03" height="19.86"/><rect class="cls-2" x="45.46" y="7.95" width="1.78" height="34.11"/><rect class="cls-1" x="90" y="15.07" width="1.03" height="19.86"/><rect class="cls-2" x="135.46" y="7.95" width="1.78" height="34.11"/><rect class="cls-1" x="180" y="15.07" width="1.03" height="19.86"/><rect class="cls-2" x="225.46" y="7.95" width="1.78" height="34.11"/><rect class="cls-1" x="270.05" y="15.07" width="1.03" height="19.86"/><rect class="cls-2" x="315.51" y="7.95" width="1.78" height="34.11"/><rect class="cls-1" x="360.03" y="15.07" width="1.03" height="19.86"/><rect class="cls-2" x="405.5" y="7.95" width="1.78" height="34.11"/><rect class="cls-1" x="450.03" y="15.07" width="1.03" height="19.86"/><rect class="cls-2" x="495.5" y="7.95" width="1.78" height="34.11"/><rect class="cls-1" x="540.03" y="15.07" width="1.03" height="19.86"/><rect class="cls-2" x="585.5" y="7.95" width="1.78" height="34.11"/><rect class="cls-1" x="630.08" y="15.07" width="1.03" height="19.86"/><rect class="cls-2" x="675.55" y="7.95" width="1.78" height="34.11"/><rect class="cls-1" x="720.04" y="15.07" width="1.03" height="19.86"/><rect class="cls-2" x="765.51" y="7.95" width="1.78" height="34.11"/><rect class="cls-1" x="810.04" y="15.07" width="1.03" height="19.86"/><rect class="cls-2" x="855.51" y="7.95" width="1.78" height="34.11"/><rect class="cls-1" x="900.04" y="15.07" width="1.03" height="19.86"/><rect class="cls-2" x="945.51" y="7.95" width="1.78" height="34.11"/><rect class="cls-1" x="990.09" y="15.07" width="1.03" height="19.86"/><rect class="cls-2" x="1035.56" y="7.95" width="1.78" height="34.11"/><rect class="cls-3" width="1.03" height="1.03"/><rect class="cls-3" x="1079.62" y="49.62" width="0.38" height="0.38"/></svg>