<svg id="Warstwa_1" data-name="Warstwa 1" xmlns="http://www.w3.org/2000/svg" viewBox="0 0 4516.73 924.42"><defs><style>.cls-1{fill:#fff;}.cls-2{fill:#fa3a44;}</style></defs><path class="cls-1" d="M2025.2,847.83C1970.55,797.6,1923,743.6,1883.74,687.34c-38.28-54.92-67.9-111-88-166.66-20.38-56.33-30.57-110.91-30.3-162.22.29-54.07,12.16-103.1,35.28-145.72,21.51-39.65,55.45-78.74,93.13-107.25,49.2-37.23,104.46-56.9,159.82-56.9s110.62,19.67,159.81,56.9c37.68,28.51,71.62,67.6,93.13,107.25,23.12,42.62,35,91.65,35.28,145.72.27,51.31-9.92,105.89-30.3,162.22-20.13,55.67-49.76,111.74-88,166.66-39.21,56.26-86.81,110.26-141.46,160.49L2053.63,874Zm28.43-527.33a36.81,36.81,0,1,0,36.8,36.81A36.85,36.85,0,0,0,2053.63,320.5Z" transform="translate(-1723.4 -6.59)"/><path class="cls-2" d="M2053.63,90.59c103.39,0,183.2,81.66,216,142.17,80.16,147.78-1.73,387.18-216,584.15-214.29-197-296.19-436.37-216-584.15,32.83-60.51,112.63-142.17,216-142.17m0,345.52a78.81,78.81,0,1,0-78.81-78.8,78.8,78.8,0,0,0,78.81,78.8m0-429.52C1989.05,6.59,1925,29.21,1868.46,72a389.94,389.94,0,0,0-61.85,58.68,372.35,372.35,0,0,0-42.84,62c-26.46,48.78-40,104.47-40.37,165.53-.3,56.27,10.74,115.73,32.8,176.73,21.39,59.11,52.7,118.46,93.08,176.39,41,58.77,90.59,115.09,147.5,167.4L2053.63,931l56.84-52.24c56.91-52.31,106.53-108.63,147.5-167.4,40.38-57.93,71.69-117.28,93.08-176.39,22.06-61,33.1-120.46,32.8-176.73-.33-61.06-13.91-116.75-40.36-165.53a373,373,0,0,0-42.84-62A390,390,0,0,0,2238.79,72c-56.56-42.79-120.58-65.41-185.16-65.41Z" transform="translate(-1723.4 -6.59)"/><path class="cls-1" d="M2354.14,731.72V140.92h157.41a244.61,244.61,0,0,1,97.91,21.64,264.52,264.52,0,0,1,79,54.89,255.48,255.48,0,0,1,53.57,80.3,255.81,255.81,0,0,1,0,195.92,255.51,255.51,0,0,1-53.56,80.3,259,259,0,0,1-79.28,54.66,242.54,242.54,0,0,1-59.76,17.83v85.25Zm195.3-295,.36-.37a58.75,58.75,0,0,0,12.07-18.61,59.47,59.47,0,0,0,0-44.75,58.87,58.87,0,0,0-12.07-18.61l-.36-.37Z" transform="translate(-1723.4 -6.59)"/><path class="cls-2" d="M2510.94,179.42a205.46,205.46,0,0,1,82.6,18.2,225,225,0,0,1,67.55,46.9,216.05,216.05,0,0,1,45.5,68.25,217.36,217.36,0,0,1,0,165.9,216.05,216.05,0,0,1-45.5,68.25,219.8,219.8,0,0,1-67.55,46.55,208.77,208.77,0,0,1-82.6,17.85v81.9h-118.3V179.42h118.3m0,313.6a93,93,0,0,0,36.75-8.78,100.71,100.71,0,0,0,29.75-21.08,97.36,97.36,0,0,0,19.95-30.55,98,98,0,0,0,0-74.47,97.63,97.63,0,0,0-19.95-30.56,101,101,0,0,0-29.75-21.07,93.16,93.16,0,0,0-36.75-8.79V493m.61-390.6H2315.64v667.8h272.3v-93a280.57,280.57,0,0,0,36.94-13.43,297.66,297.66,0,0,0,91-62.76,294,294,0,0,0,61.63-92.34,294.31,294.31,0,0,0,0-225.94,293.85,293.85,0,0,0-61.63-92.36,302.83,302.83,0,0,0-90.45-62.88,283.12,283.12,0,0,0-113.25-25.1Z" transform="translate(-1723.4 -6.59)"/><polygon class="cls-1" points="1023.43 725.14 1023.43 135.12 1430.13 134.26 1430.13 329.64 1218.73 329.64 1218.73 330.34 1390.23 330.34 1390.23 525.64 1218.73 525.64 1218.73 529.84 1430.13 529.84 1430.13 725.14 1023.43 725.14"/><path class="cls-2" d="M3115,179.42v118.3h-211.4v77.7h171.5v118.3h-171.5v81.2H3115v118.3h-329.7V180.12l329.7-.7m77-77.16-77.16.16-329.7.7-76.84.17V770.22H3192V497.92h-39.9V374.72H3192V102.26Z" transform="translate(-1723.4 -6.59)"/><polygon class="cls-1" points="1716.28 725.14 1609.33 534.41 1609.33 725.14 1414.03 725.14 1414.03 135.74 1603.9 135.74 1710.13 325.53 1710.13 134.34 1905.43 134.34 1905.43 725.14 1716.28 725.14"/><path class="cls-2" d="M3590.33,179.42v513.8h-128.1l-168-299.6v299.6h-118.3V180.82h128.8L3472,479.72V179.42h118.3m77-77H3395V184.5l-23.11-41.28-22.05-39.4H3098.93v666.4h272.3V688.37l23.84,42.51,22.06,39.34h250.2V102.42Z" transform="translate(-1723.4 -6.59)"/><path class="cls-1" d="M3873.13,732.42a300.92,300.92,0,0,1-111.51-21.62c-36.48-14.48-69.59-36.43-98.41-65.25s-50.73-61.91-65-98.21a302,302,0,0,1,0-222.3c14.24-36.56,36.11-69.76,65-98.64s61.94-50.78,98.42-65.26a298.35,298.35,0,0,1,223,0c36.5,14.49,69.61,36.45,98.42,65.26l27.23,27.22L3996.88,367h114.95v364.7h-196v-2.3A308.88,308.88,0,0,1,3873.13,732.42Zm0-396.9a103.89,103.89,0,0,0-38.46,7.5,95,95,0,0,0-33,21.83,100.61,100.61,0,0,0,0,142.94,103.74,103.74,0,0,0,11.29,9.81V367h133.85l-2.16-2.16a95.19,95.19,0,0,0-33-21.84A103.79,103.79,0,0,0,3873.13,335.52Z" transform="translate(-1723.4 -6.59)"/><path class="cls-2" d="M3873.13,178a261.56,261.56,0,0,1,97.3,18.9q47.59,18.9,85.4,56.7l-84,84a134.12,134.12,0,0,0-46.2-30.45,140.85,140.85,0,0,0-105,0,133.93,133.93,0,0,0-46.2,30.45,139.09,139.09,0,0,0,0,197.4,135.51,135.51,0,0,0,41,28.35,138.72,138.72,0,0,0,46.9,11.9q5.25.39,10.49.39a145.69,145.69,0,0,0,37.46-4.94,132.51,132.51,0,0,0,44.1-21v-25.9h-102.9V405.52h221.9v287.7h-119v-12.6a216.37,216.37,0,0,1-40.25,10.15,271.3,271.3,0,0,1-40.95,3.15,261.49,261.49,0,0,1-97.3-18.9q-47.61-18.9-85.4-56.7t-56.35-85.05a263,263,0,0,1-18.55-96.95,265.82,265.82,0,0,1,18.55-97.3q18.54-47.59,56.35-85.4t85.4-56.7a261.49,261.49,0,0,1,97.3-18.9m0-77a339.31,339.31,0,0,0-125.72,24.34c-41.38,16.43-78.88,41.26-111.43,73.82s-57.46,70.32-73.65,111.9a340.52,340.52,0,0,0,.08,250.34c16.18,41.25,40.94,78.72,73.57,111.35s70.05,57.39,111.44,73.82a339.21,339.21,0,0,0,125.71,24.33q10.82,0,21.77-.7h255.43V328.52h-60.51l20.46-20.45,54.44-54.45-54.44-54.44c-32.55-32.55-70-57.38-111.43-73.82A339.46,339.46,0,0,0,3873.13,101Z" transform="translate(-1723.4 -6.59)"/><path class="cls-1" d="M4324.62,731.72a232,232,0,0,1-163.37-66.23l-.35-.33a239.53,239.53,0,0,1-51.2-75,235.33,235.33,0,0,1-18.88-89.43V140.22h195.3v359.1c0,10.1,3.52,18.21,11.4,26.25,8.15,7.5,16.75,10.85,27.8,10.85a32.52,32.52,0,0,0,13.61-2.91A43.24,43.24,0,0,0,4352,524.6a33.79,33.79,0,0,0,7.58-11.59,41.77,41.77,0,0,0,2.84-15.79v-357h195.3v356a223.45,223.45,0,0,1-17.37,90.88A235.79,235.79,0,0,1,4491,661.47a239.31,239.31,0,0,1-73.33,50.47,230.32,230.32,0,0,1-90.26,19.78h-2.76Z" transform="translate(-1723.4 -6.59)"/><path class="cls-2" d="M4519.22,178.72v317.8a184.3,184.3,0,0,1-14.35,75.6,196.34,196.34,0,0,1-41.3,62.3,199.92,199.92,0,0,1-61.6,42.35,191.11,191.11,0,0,1-75.25,16.45h-2.1a193.47,193.47,0,0,1-136.5-55.3,200.38,200.38,0,0,1-43.05-63,196.2,196.2,0,0,1-15.75-74.9V178.72h118.3v320.6q0,30.81,23.1,53.9,23.1,21.71,54.6,21.7a70.9,70.9,0,0,0,29.4-6.3,81.78,81.78,0,0,0,24.5-16.8,72.2,72.2,0,0,0,16.1-24.5,80.32,80.32,0,0,0,5.6-30.1V178.72h118.3m77-77h-543.9V501.35a273.71,273.71,0,0,0,22,104,277.7,277.7,0,0,0,59.35,87l.34.34.34.33a270.41,270.41,0,0,0,190.25,77.16h3.43a268.46,268.46,0,0,0,105.25-23.1,277.58,277.58,0,0,0,85.09-58.61,273.71,273.71,0,0,0,57.42-86.45,261.6,261.6,0,0,0,20.41-106.13V101.72Z" transform="translate(-1723.4 -6.59)"/><polygon class="cls-1" points="2820.31 725.14 2820.31 135.12 3227.01 134.26 3227.01 329.64 3015.61 329.64 3015.61 330.34 3187.11 330.34 3187.11 525.64 3015.61 525.64 3015.61 529.84 3227.01 529.84 3227.01 725.14 2820.31 725.14"/><path class="cls-2" d="M4911.91,179.42v118.3h-211.4v77.7H4872v118.3h-171.5v81.2h211.4v118.3h-329.7V180.12l329.7-.7m77-77.16-77.16.16-329.7.7-76.84.17V770.22h483.7V497.92H4949V374.72h39.9V102.26Z" transform="translate(-1723.4 -6.59)"/><path class="cls-1" d="M5125.41,741.52a221.94,221.94,0,0,1-58.87-8A203.44,203.44,0,0,1,5010,708.06a210.82,210.82,0,0,1-71.78-77.38c-17-31.46-25.63-66.24-25.63-103.36v-38.5h123.17q-7.48-4.05-14.9-8.73A186.54,186.54,0,0,1,4969,431.67,191.36,191.36,0,0,1,4932.7,301a184,184,0,0,1,19.86-68.51l.23-.43a192.9,192.9,0,0,1,39.36-51.52,189.77,189.77,0,0,1,52.67-34.65A191.72,191.72,0,0,1,5107,130.54c5.07-.4,10.22-.6,15.32-.6a206.74,206.74,0,0,1,50.83,6.5,196.37,196.37,0,0,1,59.47,24.8,192.26,192.26,0,0,1,46.51,41.14A181.63,181.63,0,0,1,5309.58,257a188.1,188.1,0,0,1,10.53,62.45v38.5H5234a201.36,201.36,0,0,1,70.58,66.68c21.38,33.28,32.22,70.66,32.22,111.12,0,40-10.84,77.16-32.21,110.42s-51.07,58.71-88.32,75.76a206.33,206.33,0,0,1-45.39,15A229,229,0,0,1,5125.41,741.52ZM5115.2,543.08l.76.51a14.58,14.58,0,0,0,7.75,2.68c.41,0,.78,0,1.15,0a23.92,23.92,0,0,0,10-2.28l.31-.14.31-.13a13.41,13.41,0,0,0,3-1.64,24.54,24.54,0,0,0,2.82-3.46c.23-2.08.24-2.91.24-2.95h0s0-.93-.29-3.34l-.2-.41h0a12.12,12.12,0,0,0-1.87-2.23,22.88,22.88,0,0,0-5.15-3.34,117.47,117.47,0,0,0-11.6-4.39c-4.56-1.45-9.43-3.08-14.49-4.84v10.18c0,5.84.86,8.43,1.11,9.07a48,48,0,0,0,5.9,6.52Z" transform="translate(-1723.4 -6.59)"/><path class="cls-2" d="M5122.3,168.44a167.59,167.59,0,0,1,41.61,5.38,157.14,157.14,0,0,1,48.1,20,153.08,153.08,0,0,1,37.23,32.9,142.56,142.56,0,0,1,24,43.05,149,149,0,0,1,8.36,49.7h-117.7q0-16.1-10.15-22.4t-17.85-8.4a47.31,47.31,0,0,1-6.65-1.05,28.56,28.56,0,0,0-5.6-.52,40.3,40.3,0,0,0-6.3.52,42.06,42.06,0,0,0-13.65,4.9q-7,3.86-11.2,12.25a31.35,31.35,0,0,0-2.1,23.45,33.43,33.43,0,0,0,14,19.25,154.3,154.3,0,0,0,21.7,10.15q11.9,4.56,25.2,8.75,11.89,3.51,24.13,7.7t24.75,9.8q45.92,21,72,61.6t26.1,90.3q0,49-26.1,89.6t-72,61.6a166.88,166.88,0,0,1-37,12.25,189.32,189.32,0,0,1-37.79,3.85,182.58,182.58,0,0,1-48.65-6.65,164.61,164.61,0,0,1-45.85-20.65,171.94,171.94,0,0,1-58.8-63.35q-21-38.85-21-85h118.3q0,21,9.1,32.55t16.1,15.75a52.89,52.89,0,0,0,27.3,9.1c1,0,2,.07,2.95.07a62.15,62.15,0,0,0,25.75-5.67,46.56,46.56,0,0,0,15.75-10.5,57.27,57.27,0,0,0,9.1-12.25,33.67,33.67,0,0,0,3.85-11.55,59.5,59.5,0,0,0,0-18.2,37.23,37.23,0,0,0-3.85-11.9,47.82,47.82,0,0,0-9.1-12.25,60.45,60.45,0,0,0-15.75-10.85,153,153,0,0,0-16.45-6.3q-8.76-2.79-18.55-6.3-17.51-5.59-36.4-12.6a203.35,203.35,0,0,1-37.8-18.9,147.64,147.64,0,0,1-41.3-38.5,152.78,152.78,0,0,1-29-104.65,145,145,0,0,1,15.75-54.25,154,154,0,0,1,31.5-41.3,150.92,150.92,0,0,1,42-27.65,152.57,152.57,0,0,1,49.7-12.25q6.12-.48,12.29-.48m0-77c-6.1,0-12.28.24-18.36.72a228.48,228.48,0,0,0-185.18,121.92l-.22.43-.23.44a222.37,222.37,0,0,0-24,82.81A229.59,229.59,0,0,0,4935,450.32h-60.89v77c0,43.58,10.18,84.52,30.26,121.67A248.91,248.91,0,0,0,4989,740.34l.05,0,.05,0a242.16,242.16,0,0,0,67.2,30.22,260.59,260.59,0,0,0,69.08,9.4,267.24,267.24,0,0,0,53.12-5.39h.06a244.93,244.93,0,0,0,53.83-17.76c44-20.17,79.18-50.42,104.56-89.9s38.33-83.72,38.33-131.24c0-48-12.89-92.34-38.31-131.91q-2.41-3.75-4.94-7.39h26.55v-77a226.46,226.46,0,0,0-12.7-75.19A220.18,220.18,0,0,0,5309,178.11a230.67,230.67,0,0,0-55.82-49.41,234.4,234.4,0,0,0-70.81-29.63,245,245,0,0,0-60.07-7.63Z" transform="translate(-1723.4 -6.59)"/><path class="cls-1" d="M5501.3,741.52a221.82,221.82,0,0,1-58.86-8,203.49,203.49,0,0,1-56.53-25.43,210.82,210.82,0,0,1-71.78-77.38c-17-31.46-25.63-66.24-25.63-103.36v-38.5h123.17q-7.48-4.05-14.9-8.73a186.54,186.54,0,0,1-51.91-48.42A191.36,191.36,0,0,1,5308.59,301a184.21,184.21,0,0,1,19.86-68.51l.23-.43A193.11,193.11,0,0,1,5368,180.58a188.24,188.24,0,0,1,114.83-50c5.07-.4,10.22-.6,15.33-.6a206.72,206.72,0,0,1,50.82,6.5,196.27,196.27,0,0,1,59.47,24.8A192.26,192.26,0,0,1,5655,202.38,181.63,181.63,0,0,1,5685.47,257,188.1,188.1,0,0,1,5696,319.42v38.5h-86.1a201.47,201.47,0,0,1,70.59,66.68c21.38,33.28,32.21,70.66,32.21,111.12,0,40-10.84,77.16-32.21,110.42s-51.07,58.71-88.33,75.76a206.08,206.08,0,0,1-45.38,15A229,229,0,0,1,5501.3,741.52Zm-10.21-198.44.76.51a14.63,14.63,0,0,0,7.75,2.68c.41,0,.79,0,1.15,0a23.92,23.92,0,0,0,10-2.28l.31-.14.31-.13a13.41,13.41,0,0,0,3-1.64,24.54,24.54,0,0,0,2.82-3.46c.23-2.08.24-2.91.24-2.95h0s0-.93-.29-3.34c0-.11-.11-.25-.2-.41h0a12.12,12.12,0,0,0-1.87-2.23,22.88,22.88,0,0,0-5.15-3.34,117.47,117.47,0,0,0-11.6-4.39c-4.56-1.45-9.43-3.08-14.49-4.84v10.18c0,5.84.86,8.43,1.11,9.07a48,48,0,0,0,5.9,6.52Z" transform="translate(-1723.4 -6.59)"/><path class="cls-2" d="M5498.2,168.44a167.51,167.51,0,0,1,41.6,5.38,157,157,0,0,1,48.1,20,152.9,152.9,0,0,1,37.23,32.9,142.35,142.35,0,0,1,24,43.05,149,149,0,0,1,8.36,49.7H5539.8q0-16.1-10.15-22.4t-17.85-8.4a47.31,47.31,0,0,1-6.65-1.05,28.56,28.56,0,0,0-5.6-.52,40.3,40.3,0,0,0-6.3.52,42.06,42.06,0,0,0-13.65,4.9q-7,3.86-11.2,12.25a31.35,31.35,0,0,0-2.1,23.45,33.43,33.43,0,0,0,14,19.25,154.3,154.3,0,0,0,21.7,10.15q11.9,4.56,25.2,8.75,11.9,3.51,24.13,7.7t24.75,9.8q45.91,21,72,61.6t26.1,90.3q0,49-26.1,89.6t-72,61.6a166.71,166.71,0,0,1-37,12.25A189.32,189.32,0,0,1,5501.3,703a182.58,182.58,0,0,1-48.65-6.65,164.61,164.61,0,0,1-45.85-20.65,171.94,171.94,0,0,1-58.8-63.35q-21-38.85-21-85h118.3q0,21,9.1,32.55t16.1,15.75a52.89,52.89,0,0,0,27.3,9.1c1,0,2,.07,2.95.07a62.15,62.15,0,0,0,25.75-5.67,46.56,46.56,0,0,0,15.75-10.5,57.27,57.27,0,0,0,9.1-12.25,33.67,33.67,0,0,0,3.85-11.55,59.5,59.5,0,0,0,0-18.2,37.23,37.23,0,0,0-3.85-11.9,47.82,47.82,0,0,0-9.1-12.25,60.45,60.45,0,0,0-15.75-10.85,153,153,0,0,0-16.45-6.3q-8.76-2.79-18.55-6.3-17.51-5.59-36.4-12.6a203.35,203.35,0,0,1-37.8-18.9A147.64,147.64,0,0,1,5376,409,152.78,152.78,0,0,1,5347,304.37a145,145,0,0,1,15.75-54.25,154,154,0,0,1,31.5-41.3,150.92,150.92,0,0,1,42-27.65,152.57,152.57,0,0,1,49.7-12.25q6.14-.48,12.3-.48m0-77c-6.11,0-12.29.24-18.36.72a228.43,228.43,0,0,0-185.18,121.92l-.23.43-.22.44a222.39,222.39,0,0,0-24,82.81,229.59,229.59,0,0,0,40.66,152.56H5250v77c0,43.58,10.18,84.52,30.26,121.67a248.85,248.85,0,0,0,84.67,91.35l0,0,.05,0a242.35,242.35,0,0,0,67.21,30.22,260.47,260.47,0,0,0,69.07,9.4,267.24,267.24,0,0,0,53.12-5.39h.06a244.76,244.76,0,0,0,53.83-17.76c44-20.17,79.18-50.42,104.57-89.9s38.32-83.72,38.32-131.24c0-48-12.89-92.34-38.31-131.91q-2.42-3.75-4.94-7.39h26.55v-77a226.46,226.46,0,0,0-12.7-75.19,220.18,220.18,0,0,0-36.91-66.12,230.67,230.67,0,0,0-55.82-49.41,234.4,234.4,0,0,0-70.81-29.63,244.94,244.94,0,0,0-60.06-7.63Z" transform="translate(-1723.4 -6.59)"/><path class="cls-1" d="M5941.18,731.72l-59.79-96.27v96.27h-195.3V143h157.42c34,.54,66.34,6.87,96.26,18.82a267.19,267.19,0,0,1,78.87,48.24,229.45,229.45,0,0,1,54.61,72.21,206.53,206.53,0,0,1,20.24,90.06c0,33.33-7.23,64.84-21.5,93.64a220.21,220.21,0,0,1-34.34,50.33L6171,731.72Zm-59.79-337.07q2.32-1.44,4.41-3a36.36,36.36,0,0,0,10.05-11.05,16.67,16.67,0,0,0,2.34-8.66,14.94,14.94,0,0,0-2.1-7.9,38.29,38.29,0,0,0-10.3-11.11c-1.39-1.05-2.85-2.05-4.4-3Z" transform="translate(-1723.4 -6.59)"/><path class="cls-2" d="M5842.89,181.52q44.1.71,82.6,16.08A227.78,227.78,0,0,1,5993,238.85a190.17,190.17,0,0,1,45.5,60.12A167.42,167.42,0,0,1,6055,372.36q0,41.25-17.5,76.55a184.58,184.58,0,0,1-49,61.17l113.4,183.14h-139.3l-82.6-133q-9.1,1.41-18.2,2.1t-18.9,1.4v129.5h-118.3V181.52h118.3m0,263.2a123,123,0,0,0,36-6.65,108.06,108.06,0,0,0,30.1-15.75,74.74,74.74,0,0,0,20.3-22.75,55.12,55.12,0,0,0,7.35-27.65,53.24,53.24,0,0,0-7.35-27.3,76.6,76.6,0,0,0-20.3-22.4,108.59,108.59,0,0,0-30.1-15.75,123.65,123.65,0,0,0-36-6.65v144.9m.62-340.2H5647.59v665.7h592.54l-72.77-117.53-82.62-133.44a259.28,259.28,0,0,0,21.74-36.13c16.93-34.19,25.51-71.44,25.51-110.76a244.49,244.49,0,0,0-24-106.7,267.54,267.54,0,0,0-63.7-84.3,305.47,305.47,0,0,0-90.18-55.26c-34.32-13.7-71.3-20.95-110-21.57Z" transform="translate(-1723.4 -6.59)"/><path class="cls-1" d="M2392.14,693.72V178.92h118.8a207,207,0,0,1,82.81,18.25,226.71,226.71,0,0,1,67.69,47,217.58,217.58,0,0,1,45.61,68.41,217.86,217.86,0,0,1,0,166.29,217.58,217.58,0,0,1-45.61,68.41,221.22,221.22,0,0,1-67.7,46.65,210.2,210.2,0,0,1-82.3,17.89v81.9Zm119.3-201.22a92.7,92.7,0,0,0,36-8.71,101,101,0,0,0,29.61-21,97.32,97.32,0,0,0,19.85-30.41,97.47,97.47,0,0,0,0-74.07,97.44,97.44,0,0,0-19.85-30.41,101,101,0,0,0-29.61-21,93.24,93.24,0,0,0-36-8.72Z" transform="translate(-1723.4 -6.59)"/><path class="cls-2" d="M2510.94,179.42a205.46,205.46,0,0,1,82.6,18.2,225,225,0,0,1,67.55,46.9,216.05,216.05,0,0,1,45.5,68.25,217.36,217.36,0,0,1,0,165.9,216.05,216.05,0,0,1-45.5,68.25,219.8,219.8,0,0,1-67.55,46.55,208.77,208.77,0,0,1-82.6,17.85v81.9h-118.3V179.42h118.3m0,313.6a93,93,0,0,0,36.75-8.78,100.71,100.71,0,0,0,29.75-21.08,97.36,97.36,0,0,0,19.95-30.55,98,98,0,0,0,0-74.47,97.63,97.63,0,0,0-19.95-30.56,101,101,0,0,0-29.75-21.07,93.16,93.16,0,0,0-36.75-8.79V493m0-314.6H2391.64v515.8h120.3V612.31a210.7,210.7,0,0,0,82-17.92,221.87,221.87,0,0,0,67.85-46.76,218.28,218.28,0,0,0,45.71-68.57,218.35,218.35,0,0,0,0-166.68,218.24,218.24,0,0,0-45.71-68.56A227.15,227.15,0,0,0,2594,196.71a207.51,207.51,0,0,0-83-18.29Zm1,313.56V298.77a92.43,92.43,0,0,1,35.32,8.64,100.47,100.47,0,0,1,29.46,20.87,96.9,96.9,0,0,1,19.75,30.25,97,97,0,0,1,0,73.69,96.89,96.89,0,0,1-19.75,30.25,100.49,100.49,0,0,1-29.46,20.87,92.25,92.25,0,0,1-35.32,8.64Z" transform="translate(-1723.4 -6.59)"/><polygon class="cls-1" points="1061.43 687.14 1061.43 173.04 1392.13 172.34 1392.13 291.64 1180.73 291.64 1180.73 368.34 1352.23 368.34 1352.23 487.64 1180.73 487.64 1180.73 567.84 1392.13 567.84 1392.13 687.14 1061.43 687.14"/><path class="cls-2" d="M3115,179.42v118.3h-211.4v77.7h171.5v118.3h-171.5v81.2H3115v118.3h-329.7V180.12l329.7-.7m1-1h-1l-329.7.7h-1V694.22H3116V573.92h-211.4v-79.2h171.5V374.42h-171.5v-75.7H3116V178.42Z" transform="translate(-1723.4 -6.59)"/><polygon class="cls-1" points="1738.54 687.14 1571.33 388.95 1571.33 687.14 1452.03 687.14 1452.03 173.74 1581.63 173.74 1748.13 471.22 1748.13 172.34 1867.43 172.34 1867.43 687.14 1738.54 687.14"/><path class="cls-2" d="M3590.33,179.42v513.8h-128.1l-168-299.6v299.6h-118.3V180.82h128.8L3472,479.72V179.42h118.3m1-1H3471V475.89L3305.6,180.34l-.28-.52H3174.93v514.4h120.3V397.45l166.13,296.26.28.51h129.69V178.42Z" transform="translate(-1723.4 -6.59)"/><path class="cls-1" d="M3873.13,694.42a263.3,263.3,0,0,1-97.49-18.93c-31.64-12.56-60.43-31.68-85.57-56.81s-44.13-53.82-56.46-85.22A264.83,264.83,0,0,1,3615,436.32a267.58,267.58,0,0,1,18.58-97.48c12.33-31.64,31.32-60.43,56.46-85.57S3744,209,3775.64,196.46a260.35,260.35,0,0,1,195,0c31.65,12.57,60.44,31.68,85.57,56.81l.36.35-84.71,84.71-.36-.35a134.1,134.1,0,0,0-46-30.34,140.31,140.31,0,0,0-104.64,0,134,134,0,0,0-46,30.34,138.58,138.58,0,0,0,0,196.69,135.81,135.81,0,0,0,40.8,28.25,138.53,138.53,0,0,0,46.73,11.85c3.48.26,7,.39,10.46.39a146.06,146.06,0,0,0,37.33-4.92,132.59,132.59,0,0,0,43.73-20.77V524.32h-102.9V405h222.9v288.7h-120V681.33a217.84,217.84,0,0,1-39.68,9.94A273.52,273.52,0,0,1,3873.13,694.42Z" transform="translate(-1723.4 -6.59)"/><path class="cls-2" d="M3873.13,178a261.56,261.56,0,0,1,97.3,18.9q47.59,18.9,85.4,56.7l-84,84a134.12,134.12,0,0,0-46.2-30.45,140.85,140.85,0,0,0-105,0,133.93,133.93,0,0,0-46.2,30.45,139.09,139.09,0,0,0,0,197.4,135.51,135.51,0,0,0,41,28.35,138.72,138.72,0,0,0,46.9,11.9q5.25.39,10.49.39a145.69,145.69,0,0,0,37.46-4.94,132.51,132.51,0,0,0,44.1-21v-25.9h-102.9V405.52h221.9v287.7h-119v-12.6a216.37,216.37,0,0,1-40.25,10.15,271.3,271.3,0,0,1-40.95,3.15,261.49,261.49,0,0,1-97.3-18.9q-47.61-18.9-85.4-56.7t-56.35-85.05a263,263,0,0,1-18.55-96.95,265.82,265.82,0,0,1,18.55-97.3q18.54-47.59,56.35-85.4t85.4-56.7a261.49,261.49,0,0,1,97.3-18.9m0-1a263.86,263.86,0,0,0-97.67,19c-31.71,12.59-60.55,31.74-85.74,56.93s-44.22,54-56.57,85.74a267.94,267.94,0,0,0-18.62,97.66,265.15,265.15,0,0,0,18.62,97.32c12.35,31.47,31.38,60.2,56.57,85.39s54,44.34,85.74,56.92a263.66,263.66,0,0,0,97.67,19,273.18,273.18,0,0,0,41.1-3.16,218.56,218.56,0,0,0,39.1-9.72v12.18h121V404.52h-223.9v120.3h102.9v24.39A132.13,132.13,0,0,1,3910,569.76a145.54,145.54,0,0,1-37.2,4.9c-3.45,0-7-.13-10.42-.38a138.26,138.26,0,0,1-46.56-11.82,135.16,135.16,0,0,1-40.65-28.14,138.07,138.07,0,0,1,0-196A133.47,133.47,0,0,1,3821,308.1a139.86,139.86,0,0,1,104.27,0,133.79,133.79,0,0,1,45.86,30.23l.71.71.71-.71,84-84,.7-.71-.7-.7c-25.18-25.18-54-44.33-85.74-56.93a263.94,263.94,0,0,0-97.67-19Z" transform="translate(-1723.4 -6.59)"/><path class="cls-1" d="M4324.62,693.72a193.9,193.9,0,0,1-136.85-55.44,201.84,201.84,0,0,1-43.16-63.16A197.56,197.56,0,0,1,4128.82,500V178.22h119.3v321.1c0,20.3,7.72,38.32,22.95,53.55a76.91,76.91,0,0,0,54.25,21.55,70.71,70.71,0,0,0,29.19-6.25,81.7,81.7,0,0,0,24.36-16.7,72,72,0,0,0,16-24.33,80.07,80.07,0,0,0,5.57-29.92v-319h119.3v318.3a185.73,185.73,0,0,1-14.39,75.8,197.92,197.92,0,0,1-41.41,62.46,201.39,201.39,0,0,1-61.75,42.45,192.25,192.25,0,0,1-75.44,16.49h-2.11Z" transform="translate(-1723.4 -6.59)"/><path class="cls-2" d="M4519.22,178.72v317.8a184.3,184.3,0,0,1-14.35,75.6,196.34,196.34,0,0,1-41.3,62.3,199.92,199.92,0,0,1-61.6,42.35,191.11,191.11,0,0,1-75.25,16.45h-2.1a193.47,193.47,0,0,1-136.5-55.3,200.38,200.38,0,0,1-43.05-63,196.2,196.2,0,0,1-15.75-74.9V178.72h118.3v320.6q0,30.81,23.1,53.9,23.1,21.71,54.6,21.7a70.9,70.9,0,0,0,29.4-6.3,81.78,81.78,0,0,0,24.5-16.8,72.2,72.2,0,0,0,16.1-24.5,80.32,80.32,0,0,0,5.6-30.1V178.72h118.3m1-1h-120.3v319.5a79.66,79.66,0,0,1-5.53,29.73,71.54,71.54,0,0,1-15.88,24.17,81.26,81.26,0,0,1-24.2,16.59,70.27,70.27,0,0,1-29,6.21c-20.65,0-38.78-7.21-53.92-21.43-15.11-15.11-22.78-33-22.78-53.17V177.72h-120.3V500a198,198,0,0,0,15.83,75.3,202.22,202.22,0,0,0,43.26,63.31,194.44,194.44,0,0,0,137.21,55.59h2.1a193.14,193.14,0,0,0,75.66-16.53,202.08,202.08,0,0,0,61.9-42.56,198.34,198.34,0,0,0,41.51-62.62,186.21,186.21,0,0,0,14.43-76V177.72Z" transform="translate(-1723.4 -6.59)"/><polygon class="cls-1" points="2858.31 687.14 2858.31 173.04 3189.01 172.34 3189.01 291.64 2977.61 291.64 2977.61 368.34 3149.11 368.34 3149.11 487.64 2977.61 487.64 2977.61 567.84 3189.01 567.84 3189.01 687.14 2858.31 687.14"/><path class="cls-2" d="M4911.91,179.42v118.3h-211.4v77.7H4872v118.3h-171.5v81.2h211.4v118.3h-329.7V180.12l329.7-.7m1-1h-1l-329.7.7h-1V694.22h331.7V573.92h-211.4v-79.2H4873V374.42h-171.5v-75.7h211.4V178.42Z" transform="translate(-1723.4 -6.59)"/><path class="cls-1" d="M5125.41,703.52a184.12,184.12,0,0,1-48.78-6.66,165.69,165.69,0,0,1-46-20.72,173.16,173.16,0,0,1-59-63.53c-14-25.85-21.06-54.55-21.06-85.29v-.5h119.3v.5c0,13.83,3,24.68,9,32.24s11.36,12.88,16,15.64a52.61,52.61,0,0,0,27.06,9c1,0,2,.07,2.93.07a62,62,0,0,0,25.54-5.62,46.3,46.3,0,0,0,15.6-10.39,57.5,57.5,0,0,0,9-12.14,33.46,33.46,0,0,0,3.79-11.38,58.72,58.72,0,0,0,0-18.08A36.86,36.86,0,0,0,5175,515a47.47,47.47,0,0,0-9-12.12,60.21,60.21,0,0,0-15.62-10.76A151.5,151.5,0,0,0,5134,485.8c-5.78-1.84-12-4-18.57-6.31-11.58-3.7-23.83-7.94-36.4-12.6a204.67,204.67,0,0,1-37.9-18.94,149,149,0,0,1-41.44-38.63,153.35,153.35,0,0,1-29.14-105,146.12,146.12,0,0,1,15.8-54.43A155.32,155.32,0,0,1,5018,208.46a152,152,0,0,1,42.14-27.74A153.61,153.61,0,0,1,5110,168.43c4.08-.33,8.23-.49,12.33-.49a168.62,168.62,0,0,1,41.73,5.4,158.21,158.21,0,0,1,48.25,20,154.27,154.27,0,0,1,37.35,33,143.57,143.57,0,0,1,24.09,43.2,150,150,0,0,1,8.39,49.86v.5h-118.7v-.5c0-10.49-3.34-17.88-9.91-22s-12.62-6.94-17.66-8.33a47.73,47.73,0,0,1-6.68-1.06,28.31,28.31,0,0,0-5.5-.51,39.42,39.42,0,0,0-6.22.52,41.55,41.55,0,0,0-13.49,4.84,27,27,0,0,0-11,12,31,31,0,0,0-2.07,23.09,33.06,33.06,0,0,0,13.8,19,154.73,154.73,0,0,0,21.6,10.1c7.77,3,16.24,5.92,25.17,8.74,8,2.36,16.13,4.95,24.14,7.7s16.42,6.08,24.79,9.82c30.56,14,54.86,34.76,72.24,61.78s26.18,57.51,26.18,90.57a163.54,163.54,0,0,1-26.18,89.87c-17.37,27-41.67,47.81-72.23,61.79a168,168,0,0,1-37.1,12.28A190.93,190.93,0,0,1,5125.41,703.52Z" transform="translate(-1723.4 -6.59)"/><path class="cls-2" d="M5122.3,168.44a167.59,167.59,0,0,1,41.61,5.38,157.14,157.14,0,0,1,48.1,20,153.08,153.08,0,0,1,37.23,32.9,142.56,142.56,0,0,1,24,43.05,149,149,0,0,1,8.36,49.7h-117.7q0-16.1-10.15-22.4t-17.85-8.4a47.31,47.31,0,0,1-6.65-1.05,28.56,28.56,0,0,0-5.6-.52,40.3,40.3,0,0,0-6.3.52,42.06,42.06,0,0,0-13.65,4.9q-7,3.86-11.2,12.25a31.35,31.35,0,0,0-2.1,23.45,33.43,33.43,0,0,0,14,19.25,154.3,154.3,0,0,0,21.7,10.15q11.9,4.56,25.2,8.75,11.89,3.51,24.13,7.7t24.75,9.8q45.92,21,72,61.6t26.1,90.3q0,49-26.1,89.6t-72,61.6a166.88,166.88,0,0,1-37,12.25,189.32,189.32,0,0,1-37.79,3.85,182.58,182.58,0,0,1-48.65-6.65,164.61,164.61,0,0,1-45.85-20.65,171.94,171.94,0,0,1-58.8-63.35q-21-38.85-21-85h118.3q0,21,9.1,32.55t16.1,15.75a52.89,52.89,0,0,0,27.3,9.1c1,0,2,.07,2.95.07a62.15,62.15,0,0,0,25.75-5.67,46.56,46.56,0,0,0,15.75-10.5,57.27,57.27,0,0,0,9.1-12.25,33.67,33.67,0,0,0,3.85-11.55,59.5,59.5,0,0,0,0-18.2,37.23,37.23,0,0,0-3.85-11.9,47.82,47.82,0,0,0-9.1-12.25,60.45,60.45,0,0,0-15.75-10.85,153,153,0,0,0-16.45-6.3q-8.76-2.79-18.55-6.3-17.51-5.59-36.4-12.6a203.35,203.35,0,0,1-37.8-18.9,147.64,147.64,0,0,1-41.3-38.5,152.78,152.78,0,0,1-29-104.65,145,145,0,0,1,15.75-54.25,154,154,0,0,1,31.5-41.3,150.92,150.92,0,0,1,42-27.65,152.57,152.57,0,0,1,49.7-12.25q6.12-.48,12.29-.48m0-1c-4.11,0-8.28.16-12.37.49a154.33,154.33,0,0,0-50,12.33,152.46,152.46,0,0,0-42.28,27.83,155.72,155.72,0,0,0-31.71,41.57,146.82,146.82,0,0,0-15.86,54.63,153.86,153.86,0,0,0,29.24,105.32,149.3,149.3,0,0,0,41.58,38.76,205,205,0,0,0,38,19c12.58,4.66,24.84,8.91,36.44,12.62,6.52,2.33,12.77,4.46,18.55,6.3a152.74,152.74,0,0,1,16.35,6.25,59.77,59.77,0,0,1,15.45,10.65,47.08,47.08,0,0,1,8.91,12,36.37,36.37,0,0,1,3.76,11.58,58.72,58.72,0,0,1,0,18,33.21,33.21,0,0,1-3.74,11.21,57.05,57.05,0,0,1-8.95,12,45.72,45.72,0,0,1-15.42,10.26,61.36,61.36,0,0,1-25.35,5.59c-1,0-1.94,0-2.9-.07a52.07,52.07,0,0,1-26.8-8.93c-4.59-2.75-9.91-8-15.87-15.53s-8.88-18.23-8.88-31.94v-1h-120.3v1c0,30.83,7.1,59.6,21.12,85.53a173.7,173.7,0,0,0,59.13,63.71,166.24,166.24,0,0,0,46.13,20.78,184.76,184.76,0,0,0,48.92,6.68,191.11,191.11,0,0,0,38-3.87,168.51,168.51,0,0,0,37.21-12.32c30.65-14,55-34.86,72.44-62a164,164,0,0,0,26.26-90.14c0-33.16-8.83-63.72-26.26-90.84s-41.8-47.95-72.45-62c-8.39-3.74-16.75-7.05-24.84-9.83s-16.14-5.35-24.17-7.72c-8.9-2.81-17.36-5.74-25.12-8.72a153.6,153.6,0,0,1-21.53-10.07,32.53,32.53,0,0,1-13.57-18.67,30.5,30.5,0,0,1,2-22.73,26.63,26.63,0,0,1,10.79-11.82,41.41,41.41,0,0,1,13.32-4.79,39.71,39.71,0,0,1,6.15-.51,28,28,0,0,1,5.4.5,50.5,50.5,0,0,0,6.71,1.07c5,1.38,10.86,4.16,17.46,8.25,6.42,4,9.68,11.24,9.68,21.55v1h119.7v-1a150.59,150.59,0,0,0-8.42-50A144.21,144.21,0,0,0,5250,226a154.83,154.83,0,0,0-37.47-33.11,158.91,158.91,0,0,0-48.41-20.08,169,169,0,0,0-41.84-5.41Z" transform="translate(-1723.4 -6.59)"/><path class="cls-1" d="M5501.3,703.52a184.12,184.12,0,0,1-48.78-6.66,165.69,165.69,0,0,1-46-20.72,173.16,173.16,0,0,1-59-63.53c-14-25.85-21.06-54.55-21.06-85.29v-.5h119.3v.5c0,13.83,3,24.68,9,32.24s11.36,12.88,16,15.64a52.61,52.61,0,0,0,27.06,9c1,0,2,.07,2.93.07a62,62,0,0,0,25.54-5.62,46.3,46.3,0,0,0,15.6-10.39,57.15,57.15,0,0,0,9-12.14,33.46,33.46,0,0,0,3.79-11.38,58.72,58.72,0,0,0,0-18.08,36.78,36.78,0,0,0-3.8-11.73,47.42,47.42,0,0,0-9-12.12,60.38,60.38,0,0,0-15.62-10.76,152.49,152.49,0,0,0-16.38-6.27c-5.78-1.84-12-4-18.57-6.31-11.58-3.7-23.83-7.94-36.4-12.6A204.67,204.67,0,0,1,5417,448a148.84,148.84,0,0,1-41.43-38.63,153.29,153.29,0,0,1-29.15-105,146.14,146.14,0,0,1,15.81-54.43,155.08,155.08,0,0,1,31.6-41.44A152,152,0,0,1,5436,180.72a153.67,153.67,0,0,1,49.86-12.29c4.08-.33,8.23-.49,12.34-.49a168.6,168.6,0,0,1,41.72,5.4,158.21,158.21,0,0,1,48.25,20,154.27,154.27,0,0,1,37.35,33,143.57,143.57,0,0,1,24.09,43.2,150,150,0,0,1,8.39,49.86v.5H5539.3v-.5c0-10.49-3.34-17.88-9.91-22s-12.61-6.94-17.66-8.33a48,48,0,0,1-6.68-1.06,28.31,28.31,0,0,0-5.5-.51,39.42,39.42,0,0,0-6.22.52,41.63,41.63,0,0,0-13.49,4.84,27.1,27.1,0,0,0-11,12,31,31,0,0,0-2.07,23.09,33.1,33.1,0,0,0,13.8,19,155.27,155.27,0,0,0,21.6,10.1c7.77,3,16.24,5.92,25.17,8.74,8,2.36,16.14,4.95,24.14,7.7s16.42,6.08,24.79,9.82c30.56,14,54.86,34.76,72.24,61.78s26.18,57.51,26.18,90.57a163.54,163.54,0,0,1-26.18,89.87c-17.36,27-41.67,47.81-72.23,61.79a168,168,0,0,1-37.1,12.28A190.93,190.93,0,0,1,5501.3,703.52Z" transform="translate(-1723.4 -6.59)"/><path class="cls-2" d="M5498.2,168.44a167.51,167.51,0,0,1,41.6,5.38,157,157,0,0,1,48.1,20,152.9,152.9,0,0,1,37.23,32.9,142.35,142.35,0,0,1,24,43.05,149,149,0,0,1,8.36,49.7H5539.8q0-16.1-10.15-22.4t-17.85-8.4a47.31,47.31,0,0,1-6.65-1.05,28.56,28.56,0,0,0-5.6-.52,40.3,40.3,0,0,0-6.3.52,42.06,42.06,0,0,0-13.65,4.9q-7,3.86-11.2,12.25a31.35,31.35,0,0,0-2.1,23.45,33.43,33.43,0,0,0,14,19.25,154.3,154.3,0,0,0,21.7,10.15q11.9,4.56,25.2,8.75,11.9,3.51,24.13,7.7t24.75,9.8q45.91,21,72,61.6t26.1,90.3q0,49-26.1,89.6t-72,61.6a166.71,166.71,0,0,1-37,12.25A189.32,189.32,0,0,1,5501.3,703a182.58,182.58,0,0,1-48.65-6.65,164.61,164.61,0,0,1-45.85-20.65,171.94,171.94,0,0,1-58.8-63.35q-21-38.85-21-85h118.3q0,21,9.1,32.55t16.1,15.75a52.89,52.89,0,0,0,27.3,9.1c1,0,2,.07,2.95.07a62.15,62.15,0,0,0,25.75-5.67,46.56,46.56,0,0,0,15.75-10.5,57.27,57.27,0,0,0,9.1-12.25,33.67,33.67,0,0,0,3.85-11.55,59.5,59.5,0,0,0,0-18.2,37.23,37.23,0,0,0-3.85-11.9,47.82,47.82,0,0,0-9.1-12.25,60.45,60.45,0,0,0-15.75-10.85,153,153,0,0,0-16.45-6.3q-8.76-2.79-18.55-6.3-17.51-5.59-36.4-12.6a203.35,203.35,0,0,1-37.8-18.9A147.64,147.64,0,0,1,5376,409,152.78,152.78,0,0,1,5347,304.37a145,145,0,0,1,15.75-54.25,154,154,0,0,1,31.5-41.3,150.92,150.92,0,0,1,42-27.65,152.57,152.57,0,0,1,49.7-12.25q6.14-.48,12.3-.48m0-1c-4.12,0-8.29.16-12.38.49a154.33,154.33,0,0,0-50,12.33,152.6,152.6,0,0,0-42.28,27.83,155.48,155.48,0,0,0-31.7,41.57A146.65,146.65,0,0,0,5346,304.29a153.86,153.86,0,0,0,29.24,105.32,149.3,149.3,0,0,0,41.58,38.76,205.28,205.28,0,0,0,38,19c12.58,4.66,24.85,8.91,36.45,12.62,6.51,2.33,12.76,4.46,18.55,6.3a153.38,153.38,0,0,1,16.34,6.25,59.77,59.77,0,0,1,15.45,10.65,47.37,47.37,0,0,1,8.92,12,36.59,36.59,0,0,1,3.75,11.58,58.72,58.72,0,0,1,0,18,33,33,0,0,1-3.74,11.21,57.05,57.05,0,0,1-8.95,12,45.67,45.67,0,0,1-15.41,10.26,61.41,61.41,0,0,1-25.36,5.59c-1,0-1.94,0-2.9-.07a52.1,52.1,0,0,1-26.8-8.93c-4.59-2.75-9.91-8-15.86-15.53s-8.89-18.23-8.89-31.94v-1H5326v1c0,30.83,7.11,59.6,21.12,85.53a173.72,173.72,0,0,0,59.14,63.71,166,166,0,0,0,46.13,20.78A184.63,184.63,0,0,0,5501.3,704a191.11,191.11,0,0,0,38-3.87,168.51,168.51,0,0,0,37.21-12.32c30.65-14,55-34.86,72.44-62a164,164,0,0,0,26.26-90.14c0-33.16-8.83-63.72-26.26-90.84s-41.8-47.95-72.44-62c-8.4-3.74-16.76-7.05-24.85-9.83s-16.14-5.35-24.17-7.72c-8.9-2.81-17.36-5.74-25.12-8.72a153.6,153.6,0,0,1-21.53-10.07,32.58,32.58,0,0,1-13.57-18.67,30.55,30.55,0,0,1,2-22.73,26.63,26.63,0,0,1,10.79-11.82,41.46,41.46,0,0,1,13.33-4.79,39.59,39.59,0,0,1,6.14-.51,28,28,0,0,1,5.4.5,50.5,50.5,0,0,0,6.71,1.07c5,1.38,10.86,4.16,17.46,8.25,6.42,4,9.68,11.24,9.68,21.55v1h119.7v-1a150.84,150.84,0,0,0-8.41-50A144.24,144.24,0,0,0,5625.91,226a154.83,154.83,0,0,0-37.47-33.11A158.91,158.91,0,0,0,5540,172.85a169,169,0,0,0-41.83-5.41Z" transform="translate(-1723.4 -6.59)"/><path class="cls-1" d="M5962.31,693.72l-82.57-133c-5.94.91-12,1.6-17.91,2.05-6.56.51-12.6,1-18.44,1.37V693.72h-119.3V181h118.8c29.33.47,57.18,5.89,82.79,16.12a229.12,229.12,0,0,1,67.69,41.33A191.62,191.62,0,0,1,6039,298.75a168.71,168.71,0,0,1,16.5,73.61c0,27.43-5.9,53.26-17.55,76.77a185.77,185.77,0,0,1-48.79,61.05l113.64,183.54ZM5843.39,444.2a122.61,122.61,0,0,0,35.39-6.6,108,108,0,0,0,30-15.68,74.61,74.61,0,0,0,20.17-22.59,54.92,54.92,0,0,0,7.28-27.41,53,53,0,0,0-7.28-27,76.41,76.41,0,0,0-20.17-22.26,108.53,108.53,0,0,0-30-15.67,123.64,123.64,0,0,0-35.39-6.61Z" transform="translate(-1723.4 -6.59)"/><path class="cls-2" d="M5842.89,181.52q44.1.71,82.6,16.08A227.78,227.78,0,0,1,5993,238.85a190.17,190.17,0,0,1,45.5,60.12A167.42,167.42,0,0,1,6055,372.36q0,41.25-17.5,76.55a184.44,184.44,0,0,1-49,61.16l113.4,183.15h-139.3l-82.6-133q-9.1,1.41-18.2,2.1t-18.9,1.4v129.5h-118.3V181.52h118.3m0,263.2a123,123,0,0,0,36-6.65,108.06,108.06,0,0,0,30.1-15.75,74.74,74.74,0,0,0,20.3-22.75,55.12,55.12,0,0,0,7.35-27.65,53.24,53.24,0,0,0-7.35-27.3,76.6,76.6,0,0,0-20.3-22.4,108.59,108.59,0,0,0-30.1-15.75,123.65,123.65,0,0,0-36-6.65v144.9m0-264.2H5723.59v513.7h120.3V564.66c5.7-.41,11.59-.84,18-1.34,5.84-.44,11.77-1.12,17.62-2l82.25,132.44.3.47h141.65l-.95-1.52L5989.8,510.29a186.24,186.24,0,0,0,48.59-60.93,171.9,171.9,0,0,0,17.6-77,169.21,169.21,0,0,0-16.55-73.82,192.11,192.11,0,0,0-45.73-60.44,230,230,0,0,0-67.85-41.43,233,233,0,0,0-82.95-16.15Zm1,263.16V300.87a122.6,122.6,0,0,1,34.72,6.55,108,108,0,0,1,29.83,15.6,76.08,76.08,0,0,1,20,22.11,52.54,52.54,0,0,1,7.21,26.79,54.38,54.38,0,0,1-7.22,27.16,74.12,74.12,0,0,1-20,22.45,107.85,107.85,0,0,1-29.83,15.6,122.32,122.32,0,0,1-34.72,6.55Z" transform="translate(-1723.4 -6.59)"/></svg>