<svg id="Warstwa_1" data-name="Warstwa 1" xmlns="http://www.w3.org/2000/svg" viewBox="0 0 660.46 924.42"><defs><style>.cls-1{fill:#fff;}.cls-2{fill:#fa3a44;}</style></defs><path class="cls-1" d="M2025.2,847.83C1970.55,797.6,1923,743.6,1883.74,687.34c-38.28-54.92-67.9-111-88-166.66-20.38-56.33-30.57-110.91-30.3-162.22.29-54.07,12.16-103.1,35.28-145.72,21.51-39.65,55.45-78.74,93.13-107.25,49.2-37.23,104.46-56.9,159.82-56.9s110.62,19.67,159.81,56.9c37.68,28.51,71.62,67.6,93.13,107.25,23.12,42.62,35,91.65,35.28,145.72.27,51.31-9.92,105.89-30.3,162.22-20.13,55.67-49.76,111.74-88,166.66-39.21,56.26-86.81,110.26-141.46,160.49L2053.63,874Zm28.43-527.33a36.81,36.81,0,1,0,36.8,36.81A36.85,36.85,0,0,0,2053.63,320.5Z" transform="translate(-1723.4 -6.59)"/><path class="cls-2" d="M2053.63,90.59c103.39,0,183.2,81.66,216,142.17,80.16,147.78-1.73,387.18-216,584.15-214.29-197-296.19-436.37-216-584.15,32.83-60.51,112.63-142.17,216-142.17m0,345.52a78.81,78.81,0,1,0-78.81-78.8,78.8,78.8,0,0,0,78.81,78.8m0-429.52C1989.05,6.59,1925,29.21,1868.46,72a389.94,389.94,0,0,0-61.85,58.68,372.35,372.35,0,0,0-42.84,62c-26.46,48.78-40,104.47-40.37,165.53-.3,56.27,10.74,115.73,32.8,176.73,21.39,59.11,52.7,118.46,93.08,176.39,41,58.77,90.59,115.09,147.5,167.4L2053.63,931l56.84-52.24c56.91-52.31,106.53-108.63,147.5-167.4,40.38-57.93,71.69-117.28,93.08-176.39,22.06-61,33.1-120.46,32.8-176.73-.33-61.06-13.91-116.75-40.36-165.53a373,373,0,0,0-42.84-62A390,390,0,0,0,2238.79,72c-56.56-42.79-120.58-65.41-185.16-65.41Z" transform="translate(-1723.4 -6.59)"/></svg>